<?xml version="1.0" standalone="no"?>
<!DOCTYPE svg PUBLIC "-//W3C//DTD SVG 20010904//EN"
 "http://www.w3.org/TR/2001/REC-SVG-20010904/DTD/svg10.dtd">
<svg version="1.0" xmlns="http://www.w3.org/2000/svg"
 width="871.000000pt" height="871.000000pt" viewBox="0 0 871.000000 871.000000"
 preserveAspectRatio="xMidYMid meet">
<metadata>
Created by potrace 1.14, written by Peter Selinger 2001-2017
</metadata>
<g transform="translate(0.000000,871.000000) scale(0.100000,-0.100000)"
fill="#000000" stroke="none">
<path d="M5139 8211 c-30 -14 -55 -29 -57 -33 -2 -5 -10 -8 -18 -8 -8 0 -27
-9 -43 -21 -15 -11 -34 -21 -42 -22 -8 -2 -21 -7 -29 -12 -23 -15 -40 -24
-223 -119 -95 -49 -175 -94 -179 -100 -4 -6 -8 -7 -8 -3 0 5 -14 -1 -30 -13
-17 -12 -36 -23 -43 -24 -7 -1 -30 -12 -50 -24 -21 -12 -42 -22 -48 -22 -5 0
-9 -4 -9 -10 0 -5 -3 -9 -7 -8 -11 2 -107 -45 -111 -54 -2 -5 -8 -8 -14 -8 -5
0 -36 -16 -69 -35 -32 -19 -59 -33 -59 -30 0 2 -26 -11 -57 -28 -32 -18 -85
-46 -118 -62 -33 -17 -63 -34 -67 -40 -4 -5 -8 -6 -8 -2 0 5 -13 -1 -29 -12
-15 -11 -31 -18 -35 -14 -3 3 -6 1 -6 -6 0 -7 -4 -9 -10 -6 -5 3 -10 2 -10 -2
0 -8 -128 -72 -207 -105 -18 -7 -33 -16 -33 -20 0 -5 -5 -8 -10 -8 -6 0 -27
-11 -48 -24 -20 -13 -71 -42 -112 -64 l-75 -39 1 -149 c1 -82 4 -210 8 -284 9
-179 16 -369 21 -570 2 -91 5 -165 6 -165 1 0 3 -30 4 -66 1 -36 5 -72 10 -79
5 -9 4 -11 -3 -6 -7 4 -12 2 -12 -3 0 -6 3 -11 8 -11 4 0 8 -53 9 -118 1 -64
5 -128 8 -140 3 -14 2 -21 -4 -18 -6 4 -7 -4 -2 -21 5 -16 9 -53 10 -83 1 -30
3 -68 6 -85 2 -16 4 -73 5 -125 2 -85 5 -97 25 -115 49 -43 70 -60 77 -58 4 2
10 -6 13 -17 4 -11 11 -20 16 -20 6 0 17 -7 26 -15 8 -8 19 -13 24 -10 5 4 9
1 9 -5 0 -7 7 -9 16 -6 10 4 13 2 8 -6 -5 -8 -2 -9 9 -5 10 3 17 2 17 -4 0 -6
7 -6 20 1 14 8 20 8 20 0 0 -7 8 -9 19 -5 11 3 22 2 25 -3 7 -12 116 -65 132
-65 7 0 16 -7 18 -14 3 -8 2 -12 -3 -9 -5 3 -21 -5 -37 -19 -15 -13 -31 -22
-35 -19 -4 2 -11 -1 -16 -8 -4 -7 -21 -20 -38 -29 -44 -23 -79 -43 -85 -49 -3
-3 -22 -14 -42 -25 -21 -11 -38 -22 -38 -25 0 -4 -16 -12 -35 -20 -19 -8 -35
-17 -35 -22 0 -4 -4 -8 -10 -8 -8 0 -92 -49 -166 -98 -10 -7 -27 -15 -36 -18
-10 -4 -18 -10 -18 -15 0 -5 -6 -9 -14 -9 -8 0 -21 -6 -28 -12 -7 -7 -26 -20
-43 -28 -16 -8 -32 -18 -35 -21 -3 -3 -39 -25 -80 -50 -41 -24 -77 -46 -80
-49 -3 -3 -26 -17 -52 -30 -27 -14 -48 -28 -48 -32 0 -5 -9 -8 -19 -8 -11 0
-21 -3 -23 -8 -4 -9 -126 -82 -139 -82 -5 0 -9 -4 -9 -10 0 -5 -7 -10 -15 -10
-8 0 -15 -4 -15 -9 0 -9 -37 -25 -50 -23 -3 0 -9 -6 -13 -14 -4 -8 -15 -14
-22 -14 -8 0 -15 -3 -15 -7 0 -5 -18 -17 -40 -27 -22 -11 -40 -23 -40 -28 0
-4 -9 -8 -20 -8 -11 0 -20 -4 -20 -9 0 -5 -10 -13 -22 -17 -12 -3 -28 -13 -36
-20 -7 -8 -20 -14 -28 -14 -8 0 -14 -4 -14 -8 0 -5 -12 -15 -27 -23 -16 -7
-47 -26 -70 -42 -24 -15 -43 -24 -43 -20 -1 4 -10 -3 -20 -16 -11 -13 -20 -20
-20 -16 0 3 -12 -2 -28 -12 -32 -22 -46 -30 -135 -83 -38 -22 -73 -40 -78 -40
-5 0 -9 -5 -9 -11 0 -5 -4 -7 -10 -4 -5 3 -10 1 -10 -4 0 -6 -7 -11 -15 -11
-8 0 -15 -4 -15 -10 0 -5 -5 -10 -10 -10 -6 0 -46 -23 -90 -50 -44 -28 -84
-50 -90 -50 -5 0 -10 -4 -10 -10 0 -5 -7 -10 -15 -10 -8 0 -15 -5 -15 -11 0
-5 -4 -8 -9 -5 -5 3 -14 -1 -21 -9 -7 -8 -17 -15 -22 -15 -5 0 -18 -9 -30 -20
-12 -10 -25 -17 -29 -14 -4 2 -12 -4 -18 -13 -6 -10 -11 -15 -11 -11 0 4 -16
-4 -36 -17 -20 -14 -40 -23 -44 -20 -4 3 -10 -2 -14 -10 -3 -8 -10 -15 -16
-15 -6 0 -36 -16 -66 -35 -30 -19 -58 -35 -63 -35 -5 0 -23 -12 -40 -26 -17
-14 -31 -23 -31 -20 0 7 -52 -24 -60 -35 -3 -4 -12 -9 -20 -11 -8 -2 -19 -7
-25 -11 -31 -24 -117 -76 -135 -82 -11 -3 -20 -10 -20 -15 0 -8 -38 -23 -53
-21 -4 1 -7 -3 -7 -8 0 -10 -120 -84 -137 -84 -7 0 -13 -7 -13 -15 0 -9 -3
-12 -6 -9 -4 4 -19 -2 -34 -13 -15 -11 -39 -24 -54 -30 -14 -5 -26 -14 -26
-21 0 -6 -6 -9 -12 -7 -7 3 -21 -3 -31 -12 -10 -10 -35 -26 -57 -36 -22 -10
-40 -23 -40 -27 0 -5 -4 -5 -10 -2 -5 3 -10 3 -10 -2 0 -12 -51 -33 -63 -26
-6 3 -7 1 -3 -5 4 -7 1 -12 -9 -12 -8 0 -18 -7 -22 -16 -5 -13 -7 -13 -14 -2
-7 10 -9 10 -9 1 0 -7 -7 -13 -15 -13 -8 0 -15 -4 -15 -10 0 -5 -7 -10 -15
-10 -9 0 -18 -6 -21 -14 -3 -8 -12 -12 -20 -9 -8 3 -14 0 -14 -7 0 -6 -4 -8
-10 -5 -5 3 -10 1 -10 -5 0 -6 -4 -9 -9 -5 -6 3 -14 -3 -20 -12 -6 -10 -11
-14 -11 -10 0 5 -21 -12 -46 -37 -25 -25 -43 -50 -39 -56 3 -5 0 -10 -7 -10
-9 0 -9 -3 2 -10 12 -8 12 -10 1 -10 -8 0 -12 -3 -8 -6 3 -3 2 -16 -3 -29 -6
-17 -4 -28 9 -41 9 -11 20 -27 24 -37 3 -9 13 -17 21 -17 8 0 17 -8 20 -18 3
-9 24 -28 46 -42 22 -14 43 -33 46 -42 3 -10 9 -18 13 -18 4 0 25 -18 47 -40
21 -22 45 -40 52 -40 7 0 10 -4 7 -10 -3 -5 -3 -10 2 -10 14 0 63 -47 63 -60
0 -7 7 -10 15 -6 9 3 15 0 15 -8 0 -8 11 -21 24 -30 35 -22 75 -64 68 -70 -3
-3 2 -6 11 -6 8 0 25 -12 36 -26 12 -15 21 -24 21 -21 0 3 30 -24 67 -59 38
-36 96 -92 131 -124 34 -33 62 -58 62 -55 0 2 29 -24 64 -58 154 -148 206
-197 209 -197 2 0 40 -35 85 -79 44 -43 83 -76 86 -73 4 3 6 -2 6 -11 0 -9 4
-17 9 -17 4 0 32 -22 61 -50 29 -27 57 -50 61 -50 5 0 9 -7 9 -15 0 -8 4 -15
8 -15 5 0 37 -27 72 -60 35 -33 67 -60 72 -60 4 0 8 -7 8 -15 0 -8 5 -15 10
-15 6 0 31 -20 55 -45 25 -24 45 -43 45 -41 0 3 29 -23 64 -57 112 -108 207
-197 210 -197 2 0 37 -33 79 -72 41 -40 103 -98 137 -128 34 -30 67 -61 75
-68 12 -10 20 -7 48 20 19 18 81 76 137 128 56 52 138 129 181 171 44 42 79
75 79 72 0 -2 20 15 44 39 89 86 121 113 131 110 5 -2 7 0 3 3 -4 4 25 37 64
74 40 36 96 89 125 118 29 28 53 50 53 48 0 -2 26 22 59 54 161 155 217 206
224 203 4 -1 7 5 7 15 0 9 3 14 6 10 3 -3 26 14 50 39 24 24 46 44 49 44 3 0
37 31 75 69 38 38 71 66 74 63 3 -3 6 0 6 6 0 6 11 22 25 36 14 14 25 22 25
19 0 -4 15 10 33 30 18 20 37 37 42 37 6 0 16 9 23 20 7 12 17 18 22 15 9 -6
14 8 11 28 0 4 4 7 10 7 7 0 35 22 63 49 91 88 126 119 126 114 0 -3 8 4 19
15 10 12 21 19 25 15 3 -3 6 0 6 8 0 17 41 55 55 50 5 -1 7 0 3 4 -6 6 51 70
62 69 3 0 13 10 24 23 13 17 24 22 40 18 14 -4 17 -3 8 3 -9 6 -6 11 13 20 14
6 25 16 25 22 0 6 5 8 10 5 6 -3 10 -1 10 5 0 6 5 8 13 4 7 -5 7 -1 -3 12 -8
10 -11 16 -6 12 5 -4 23 8 41 27 18 18 37 30 41 27 4 -4 4 -2 1 4 -7 13 30 47
43 39 6 -4 10 0 10 7 0 8 9 20 20 28 11 8 20 20 20 27 0 7 7 10 17 6 11 -4 14
-3 9 5 -4 7 -2 12 3 12 6 0 11 6 11 14 0 8 8 13 18 12 11 -1 16 5 14 16 -2 11
3 18 13 18 8 0 15 4 15 9 0 5 13 14 30 21 16 7 32 21 35 31 4 11 10 17 14 14
4 -2 14 7 21 21 8 13 20 22 27 20 7 -3 12 -2 12 2 -4 24 4 39 30 57 16 10 28
22 25 26 -2 3 7 15 21 25 13 10 22 21 19 26 -3 4 -1 8 3 8 5 0 27 17 49 37 22
21 63 59 91 85 28 26 50 48 48 50 -2 2 3 9 11 16 8 7 14 10 14 7 0 -3 13 8 30
25 16 16 34 30 40 30 5 0 10 7 10 16 0 8 4 13 9 9 5 -3 13 4 16 16 4 11 9 19
11 16 3 -2 21 12 42 32 21 20 76 72 122 115 47 44 117 109 155 145 39 36 94
87 122 113 28 26 48 49 45 52 -3 3 0 6 6 6 11 0 93 74 193 173 22 21 39 36 39
33 0 -3 8 2 18 12 11 9 17 20 15 25 -2 4 0 7 5 7 6 0 40 29 76 64 36 35 66 62
66 60 0 -1 13 9 28 24 15 15 27 30 25 33 -1 3 9 12 22 19 14 7 25 17 25 22 0
4 7 8 17 8 9 0 14 3 10 6 -3 3 20 29 51 57 31 28 63 57 70 64 7 7 18 13 23 13
6 0 8 3 6 8 -2 4 16 26 40 48 24 23 43 40 43 39 0 -2 22 18 49 45 27 27 52 46
55 43 3 -4 6 1 6 11 0 9 4 15 9 11 5 -3 13 4 16 16 4 11 9 18 12 15 3 -2 29
19 59 49 30 29 54 52 54 51 0 -2 43 38 95 88 52 50 125 118 162 151 36 33 85
78 108 100 23 22 65 61 92 87 28 26 48 49 45 52 -3 3 -1 6 5 6 6 0 40 28 76
63 36 34 106 100 157 147 50 47 120 113 155 146 35 34 66 59 69 56 3 -3 6 3 6
13 0 10 2 16 6 13 3 -3 27 15 53 41 26 25 106 100 176 166 71 66 138 130 149
143 11 12 25 22 32 22 7 0 15 8 18 18 3 9 30 35 60 56 30 22 53 43 50 47 -3 6
43 27 61 28 11 1 33 26 28 34 -2 4 3 7 11 7 8 0 20 9 26 20 6 11 15 18 21 15
5 -4 9 -1 9 5 0 6 5 8 10 5 6 -3 10 1 10 10 0 9 5 13 10 10 6 -3 10 3 10 13 0
21 16 38 39 44 8 2 39 27 68 56 30 29 59 49 65 46 7 -5 8 -2 4 5 -5 8 -1 14
11 17 24 7 59 62 54 88 -1 10 2 15 7 12 6 -3 13 2 17 11 3 10 1 19 -5 21 -6 2
-16 9 -23 15 -21 19 -56 37 -72 37 -8 0 -15 5 -15 11 0 5 -4 8 -9 4 -6 -3 -14
3 -20 12 -6 10 -11 15 -11 10 0 -8 -98 42 -118 61 -8 7 -18 10 -23 7 -5 -4 -9
-1 -9 5 0 6 -4 9 -9 5 -6 -3 -14 3 -20 12 -6 10 -11 15 -11 10 0 -8 -102 43
-112 58 -5 7 -8 7 -8 0 0 -7 -3 -7 -8 0 -9 13 -84 51 -90 47 -3 -2 -8 0 -11 5
-5 8 -53 34 -205 112 -28 14 -53 28 -56 31 -12 12 -51 30 -65 30 -8 0 -15 4
-15 9 0 4 -25 19 -55 32 -30 13 -55 27 -55 30 0 6 -16 12 -48 19 -4 1 -14 7
-22 14 -51 40 -150 73 -150 49 0 -5 -23 -19 -51 -33 -27 -13 -59 -33 -69 -43
-11 -10 -20 -14 -20 -10 0 4 -4 3 -8 -3 -4 -6 -27 -21 -52 -35 -25 -13 -47
-26 -50 -29 -8 -8 -43 -29 -70 -42 -14 -7 -31 -18 -38 -25 -7 -7 -17 -13 -22
-13 -4 0 -34 -17 -66 -37 -32 -21 -61 -37 -66 -35 -4 1 -8 -2 -8 -8 0 -5 -7
-10 -15 -10 -8 0 -15 -4 -15 -8 0 -5 -21 -19 -47 -32 -27 -13 -50 -26 -53 -30
-8 -11 -54 -34 -62 -32 -5 1 -8 -2 -8 -8 0 -5 -7 -10 -15 -10 -8 0 -15 -4 -15
-10 0 -5 -11 -12 -25 -16 -14 -3 -25 -10 -25 -15 0 -5 -6 -9 -14 -9 -7 0 -19
-7 -26 -15 -7 -8 -16 -13 -20 -10 -4 3 -11 -2 -14 -11 -3 -8 -10 -12 -16 -9
-5 3 -10 2 -10 -3 0 -5 -8 -13 -17 -16 -22 -8 -56 -28 -77 -45 -9 -7 -16 -10
-16 -5 0 5 -4 4 -8 -2 -4 -6 -33 -26 -64 -44 -32 -17 -58 -36 -58 -41 0 -4 -7
-6 -15 -3 -8 4 -15 2 -15 -4 0 -5 -15 -17 -32 -27 -80 -41 -94 -49 -106 -62
-8 -7 -18 -11 -23 -8 -5 4 -9 2 -9 -4 0 -5 -20 -20 -45 -32 -25 -12 -45 -26
-45 -30 0 -4 -16 -13 -35 -19 -19 -6 -35 -16 -35 -21 0 -6 -4 -7 -10 -4 -5 3
-10 2 -10 -3 0 -5 -13 -15 -30 -22 -16 -7 -30 -16 -30 -21 0 -5 -9 -9 -20 -9
-11 0 -20 -4 -20 -8 0 -5 -12 -15 -27 -23 -16 -7 -53 -29 -83 -48 -30 -19 -60
-34 -67 -34 -7 0 -10 -4 -7 -8 3 -5 -7 -11 -21 -15 -14 -3 -25 -9 -25 -13 0
-4 -26 -20 -57 -36 -31 -17 -65 -37 -74 -45 -10 -8 -40 -26 -66 -40 -26 -14
-52 -28 -58 -33 -27 -20 -88 -58 -98 -60 -7 -1 -14 -4 -17 -7 -10 -10 -86 -57
-102 -63 -10 -3 -18 -11 -18 -17 0 -6 -4 -9 -9 -5 -5 3 -12 1 -16 -5 -3 -5
-11 -10 -16 -10 -6 0 -7 5 -3 11 7 12 9 24 18 159 4 47 9 101 11 120 2 19 7
71 10 115 3 44 8 98 10 120 2 22 7 76 10 120 4 44 8 94 10 110 4 33 13 145 20
245 5 66 10 132 19 230 3 30 8 84 11 120 6 79 15 180 20 240 3 25 7 79 10 120
3 41 7 93 10 115 3 22 7 72 10 110 3 39 8 93 10 120 3 28 7 86 10 130 4 44 8
89 9 100 2 11 7 68 11 128 8 112 7 115 -37 108 -5 0 -8 3 -8 7 0 15 -25 9 -81
-17z"/>
</g>
</svg>
